<svg xmlns="http://www.w3.org/2000/svg" width="399.996" height="62.222" viewBox="0 0 180 28"><path data-name="シェイプ 1" d="M179.214 12.979h-25.445a.761.761 0 1 1 0-1.521l8.822.032-.033-.1a16.893 16.893 0 0 0-2.732-3.884.676.676 0 0 1-.165-.356.83.83 0 0 1 .856-.744c1.086 0 3.72 3.884 3.72 4.5a.921.921 0 0 1-.231.583h4.576a26.913 26.913 0 0 0 2.271-4.628.884.884 0 0 1 .823-.615.967.967 0 0 1 .987.874c0 .744-2.139 4.143-2.3 4.369l8.855-.032a.761.761 0 1 1-.004 1.522zm-2.206-7.638h-21.067a.761.761 0 1 1 0-1.521h9.678l-.066-2.977a.841.841 0 0 1 .955-.777.829.829 0 0 1 .922.777l-.03 2.977h9.611a.761.761 0 1 1-.003 1.522zm-48.516 20.616a1 1 0 0 1-1.119-.906 1.034 1.034 0 0 1 .987-.939c4.444-.939 8.394-3.948 8.394-8.835 0-4.531-4.082-7.7-8.789-7.7a.9.9 0 0 1 .461.841c0 3.01-4.345 15.179-8.756 15.179-1.712 0-4.279-2.2-4.279-6.02 0-5.148 4.609-11.426 12.609-11.426 5.662 0 10.632 3.56 10.632 9.256-.002 7.961-8.988 10.55-10.14 10.55zM117.1 17.446c0 2.2 1.349 4.207 2.666 4.207 2.238 0 6.32-7.767 6.781-13.2a1.1 1.1 0 0 1 .329-.809c-6.185.578-9.776 5.756-9.776 9.802zm-20.666 7.767c-1.81 0-3.193-1.262-3.193-4.24 0-.388.033-.777.066-1.2.2-1.748.79-5.372.889-7.379v-.45c0-1.748-.494-2.816-1.712-2.816-2.6 0-8.822 6.149-9.546 6.958a78.2 78.2 0 0 0-.165 4.758 38.569 38.569 0 0 0 .362 5.567v.162a1 1 0 0 1-1.02 1.036c-1.02 0-1.053-1.23-1.053-3.69 0-1.748.1-3.851.23-6.084a29.535 29.535 0 0 0-1.942 3.075c-1.745 3.172-1.876 3.4-2.7 3.4a1 1 0 0 1-1.02-.841c0-.356.066-.421 1.02-1.521a82.424 82.424 0 0 0 4.9-7.929l.2-2.492a38.14 38.14 0 0 0-3.72 1.651 1.174 1.174 0 0 1-.593.162.788.788 0 0 1-.823-.809.854.854 0 0 1 .527-.777c1.481-.68 3.292-1.456 4.773-1.974.263-2.654.494-4.984.691-6.505a.823.823 0 0 1 .856-.777.848.848 0 0 1 .922.744v.125a79.659 79.659 0 0 0-.856 5.923c.1 0 .165-.032.23-.032a.942.942 0 0 1 1.02 1c0 .486-.2.971-1.679 3.56v.194c4.378-4.5 7.308-6.473 9.678-6.473 2.206 0 3.259 1.909 3.259 4.24 0 .162-.033.356-.033.518-.132 1.974-.757 5.631-.922 7.509a9.259 9.259 0 0 0-.033.939c0 1.877.625 2.686 1.58 2.686.987 0 2.271-.809 3.62-2.2a1.148 1.148 0 0 1 .791-.388.907.907 0 0 1 .855.939c.007.971-3.056 3.431-5.459 3.431zM62.072 21.88a.954.954 0 0 1-.988.939 21.487 21.487 0 0 1-5.695-2.233c.23.388.362.712.362 2.621 0 .712 0 1.489-.033 2.039-.066 1.651-1.02 2.622-3.028 2.686C51.111 28 49.6 28 48.148 28c-1.481 0-2.93 0-4.378-.065-2.205-.065-3.028-1.133-3.061-2.654 0-.518-.033-1.133-.033-1.715 0-2.136.1-2.913.757-3.5a25.478 25.478 0 0 1-6.55 3.139.813.813 0 0 1-.823-.841.747.747 0 0 1 .559-.744 27.247 27.247 0 0 0 8.558-4.563l-8.3.065a.667.667 0 0 1-.691-.68.675.675 0 0 1 .691-.712l9.776.032a22.028 22.028 0 0 0 1.876-2.007c-7.044 0-7.406 0-7.406-4.013 0-1.942 0-3.657 3.028-3.754 1.942-.065 4.016-.065 6.09-.065s4.148 0 6.09.065c2.804.033 2.869 1.522 2.869 3.755 0 2.33-.165 3.851-2.93 3.948-1.843.065-3.917.065-5.991.065a.338.338 0 0 1-.066.162 21.361 21.361 0 0 1-1.58 1.845h1.383l13.266-.032a.667.667 0 0 1 .691.68.675.675 0 0 1-.691.712l-8.69-.065a21.565 21.565 0 0 0 8.822 4.078.784.784 0 0 1 .658.744zm-8.13-14.694c-1.81-.032-3.785-.065-5.728-.065-1.975 0-3.917.032-5.695.065-1.218.032-1.843.453-1.843 2.039H55.62c0-1.586-.493-2.006-1.678-2.039zm-5.76 5.34c2.008 0 4.049 0 5.793-.032 1.58-.032 1.679-.744 1.679-2.136H40.676c0 1.812.691 2.1 1.909 2.136 1.646.032 3.588.032 5.596.032zm2.469 4.531h-5.3a28.076 28.076 0 0 1-3.292 2.589c.823-.388 2.107-.388 6.551-.388 1.448 0 2.93.032 4.246.065a4.115 4.115 0 0 1 .658.065 21.825 21.825 0 0 1-2.864-2.331zm1.745 3.56c-1.185-.032-2.7-.065-4.213-.065s-3.028.032-4.213.065-1.679.485-1.745 1.424v.809H54.2c0-1.424-.061-2.168-1.806-2.233zM42.223 24.08v1.068c.033 1 .658 1.424 1.81 1.456 1.284.032 2.666.065 4.049.065 1.415 0 2.864-.032 4.246-.065a1.636 1.636 0 0 0 1.843-1.521c0-.291.033-.647.033-1H42.223zM60.657 3.529L52.493 3.5v1.162a.769.769 0 0 1-.823.712.78.78 0 0 1-.856-.712V3.5H45.12v1.162a.87.87 0 0 1-1.712 0V3.5l-7.768.032a.725.725 0 0 1-.856-.68.791.791 0 0 1 .856-.777l7.768.032V.713a.87.87 0 0 1 1.712 0v1.392h5.695V.713A.76.76 0 0 1 51.67 0a.748.748 0 0 1 .823.712v1.393l8.163-.032a.731.731 0 1 1 .001 1.456zm-47.529 23.5c-1.448.065-3 .065-4.51.065s-3 0-4.345-.065c-2.6-.1-4.115-1.456-4.18-3.69-.066-2.136-.1-5.4-.1-8.674 0-2.913.033-5.858.1-8.059.065-2.041 1.382-3.53 4.048-3.627 1.251-.032 3.094-.065 4.938-.065 1.481 0 2.963.032 4.115.065 2.469.1 3.917 1.521 3.983 3.625.066 2.007.1 5.081.1 8.123 0 3.366-.033 6.7-.1 8.447-.066 2.233-1.515 3.754-4.049 3.851zm2.238-19.94C15.3 5.536 14.774 4.6 12.7 4.532c-.856-.032-2.4-.064-3.95-.064s-3.16.032-4.181.064c-1.81.068-2.669.842-2.732 2.557-.066 1.489-.1 3.754-.1 6.182h13.728c0-2.46-.033-4.725-.099-6.182zm-13.628 7.8c0 3.107 0 6.182.066 7.9.066 1.812.922 2.557 3.061 2.622.757.032 2.238.032 3.72.032 1.514 0 3.061 0 3.917-.032 2.074-.065 2.8-.971 2.864-2.783.066-1.78.1-4.757.1-7.735H1.738zm159.734 1.1c1.349-.032 2.567-.032 3.818-.032 1.975 0 3.95.032 6.518.065A2.981 2.981 0 0 1 175 18.578c.066 1.036.066 2.1.066 3.139s0 2.071-.066 3.139a3.184 3.184 0 0 1-3.357 2.945c-1.778.032-3.358.065-4.872.065-1.744 0-3.423-.032-5.234-.1-2.238-.065-3.258-1.262-3.357-2.913-.033-1-.066-2.007-.066-3.01 0-1.036.033-2.039.066-3.075.066-1.419 1.086-2.746 3.292-2.779zm-1.679 8.479c.066 1.974 1.152 1.974 7.011 1.974 1.448 0 2.9-.032 4.378-.065 2.14-.065 2.173-1.2 2.173-3.981H159.76c0 .681 0 1.393.033 2.073zm13.562-3.4c0-2.395-.066-3.625-2.239-3.689-1.876-.032-3.752-.065-5.662-.065-1.185 0-2.337 0-3.522.032a1.883 1.883 0 0 0-2.139 1.845c-.033.615-.033 1.23-.033 1.845z" fill="#fff" fill-rule="evenodd"/></svg>